<?xml version="1.0" standalone="no"?><!DOCTYPE svg PUBLIC "-//W3C//DTD SVG 1.1//EN" "http://www.w3.org/Graphics/SVG/1.1/DTD/svg11.dtd"><svg t="1773157604541" class="icon" viewBox="0 0 1060 1024" version="1.1" xmlns="http://www.w3.org/2000/svg" p-id="21820" xmlns:xlink="http://www.w3.org/1999/xlink" width="207.03125" height="200"><path d="M4.71084 511.695565c0 282.250044 228.804211 511.054255 511.049264 511.054255 282.248796 0 511.053007-228.804211 511.053007-511.054255 0-282.243805-228.804211-511.048016-511.053007-511.048017-282.245053 0-511.049264 228.804211-511.049264 511.048017z m0 0" fill="#DEDFE0" p-id="21821"></path><path d="M889.74868 858.352354c-74.510498-46.924184-191.744225-88.000468-203.645891-93.960659-12.778789-6.389395-74.524223-25.553836-76.654021-74.52547-1.867784-42.751925 39.36446-58.753485 76.654021-104.347636 25.562569-49.682815 59.625617-168.212886 25.557578-276.810138-57.495818-132.025032-191.650648-132.006316-191.650648-132.006316l-4.254606 1.691861-4.254605-1.691861s-134.156078-0.018715-191.641915 132.006316c-34.078019 108.597251 0.004991 233.516717 25.547597 276.810138 37.304533 45.594151 78.521805 61.595711 76.66026 104.347636-2.129798 48.971635-63.880222 68.136076-76.66026 74.52547-11.896676 5.960191-129.135393 47.031485-203.644643 93.960659-0.293206 0.209611-0.492836 0.419222-0.779803 0.633824C234.309826 959.664373 367.641184 1022.74982 515.760104 1022.74982c148.055288 0 281.332995-63.031796 374.661078-163.626397-0.25328-0.254528-0.419222-0.512799-0.672502-0.771069z m0 0" fill="#F5F5F9" p-id="21822"></path></svg>